<svg width="15" height="15" viewBox="0 0 15 15" fill="none" xmlns="http://www.w3.org/2000/svg">
<path d="M1.43787 15C1.8284 15 2.18343 14.84 2.4497 14.5557L7.47337 9.50829L12.5325 14.5557C12.7988 14.8223 13.1361 15 13.5444 15C14.3432 15 14.9822 14.3602 14.9822 13.5604C14.9822 13.1517 14.8225 12.8318 14.5385 12.5474L9.49704 7.5L14.5562 2.41706C14.858 2.11493 15 1.8128 15 1.4218C15 0.63981 14.3609 0 13.5621 0C13.1893 0 12.8876 0.14218 12.5858 0.444313L7.47337 5.50948L2.4142 0.462085C2.14793 0.177725 1.8284 0.035545 1.43787 0.035545C0.639053 0.035545 0 0.657583 0 1.43957C0 1.83057 0.159763 2.16825 0.443787 2.43483L5.48521 7.5L0.443787 12.5652C0.159763 12.8318 0 13.1694 0 13.5604C0 14.3602 0.639053 15 1.43787 15Z" fill="#EBEBF5" fill-opacity="0.3"/>
</svg>
