<svg width="17" height="17" viewBox="0 0 17 17" fill="none" xmlns="http://www.w3.org/2000/svg">
<path d="M8.5 16.3281C12.8594 16.3281 16.4688 12.7109 16.4688 8.35938C16.4688 4 12.8516 0.390625 8.49219 0.390625C4.14062 0.390625 0.53125 4 0.53125 8.35938C0.53125 12.7109 4.14844 16.3281 8.5 16.3281ZM3.82812 3.29688C4.60938 2.57031 5.5625 2.02344 6.60938 1.71875C6.07031 2.26562 5.60938 3.03906 5.26562 3.99219C4.71094 3.8125 4.22656 3.57812 3.82812 3.29688ZM10.3984 1.72656C11.4375 2.03125 12.3828 2.57812 13.1719 3.30469C12.7734 3.58594 12.2891 3.8125 11.7344 3.99219C11.3906 3.04688 10.9297 2.27344 10.3984 1.72656ZM6.27344 4.25C6.71094 3.05469 7.32031 2.19531 7.99219 1.89844V4.42969C7.375 4.40625 6.80469 4.34375 6.27344 4.25ZM9.01562 1.89844C9.67969 2.19531 10.2891 3.05469 10.7266 4.25C10.1953 4.34375 9.625 4.40625 9.01562 4.42969V1.89844ZM1.60938 7.84375C1.71875 6.42188 2.27344 5.10156 3.13281 4.03906C3.61719 4.40625 4.24219 4.71094 4.96875 4.94531C4.74219 5.82031 4.60156 6.79688 4.5625 7.84375H1.60938ZM12.4375 7.84375C12.3984 6.79688 12.2578 5.82031 12.0312 4.94531C12.7578 4.71094 13.3828 4.40625 13.8594 4.04688C14.7266 5.10156 15.2812 6.42188 15.3906 7.84375H12.4375ZM9.01562 7.84375V5.45312C9.71875 5.42969 10.3906 5.34375 11.0234 5.21094C11.2266 6.01562 11.3516 6.90625 11.3906 7.84375H9.01562ZM5.60938 7.84375C5.64844 6.90625 5.78125 6.01562 5.97656 5.21094C6.60938 5.34375 7.28125 5.42969 7.99219 5.45312V7.84375H5.60938ZM1.60938 8.86719H4.5625C4.60156 9.9375 4.74219 10.9219 4.96875 11.8047C4.25 12.0391 3.63281 12.3438 3.15625 12.7031C2.28125 11.6328 1.71875 10.3047 1.60938 8.86719ZM5.60938 8.86719H7.99219V11.3047C7.28906 11.3281 6.61719 11.4141 5.99219 11.5391C5.78125 10.7266 5.64062 9.82031 5.60938 8.86719ZM9.01562 11.3047V8.86719H11.3906C11.3594 9.82031 11.2188 10.7266 11.0078 11.5391C10.3906 11.4141 9.71094 11.3281 9.01562 11.3047ZM12.0312 11.8047C12.2578 10.9219 12.3984 9.9375 12.4375 8.86719H15.3906C15.2812 10.3047 14.7188 11.6328 13.8438 12.7031C13.3672 12.3438 12.75 12.0391 12.0312 11.8047ZM9.01562 12.3281C9.61719 12.3516 10.1875 12.4062 10.7109 12.5078C10.2734 13.6719 9.67188 14.5312 9.01562 14.8281V12.3281ZM6.28906 12.5078C6.8125 12.4062 7.38281 12.3516 7.99219 12.3281V14.8281C7.32812 14.5312 6.72656 13.6719 6.28906 12.5078ZM11.7266 12.7578C12.2734 12.9375 12.75 13.1641 13.1484 13.4375C12.3672 14.1484 11.4375 14.6875 10.4062 14.9922C10.9297 14.4531 11.3828 13.6875 11.7266 12.7578ZM3.85156 13.4375C4.25 13.1641 4.72656 12.9375 5.27344 12.7578C5.61719 13.6875 6.07031 14.4531 6.60156 14.9922C5.57031 14.6875 4.63281 14.1484 3.85156 13.4375Z" fill="white"/>
</svg>
