<svg width="21" height="18" viewBox="0 0 21 18" fill="none" xmlns="http://www.w3.org/2000/svg">
<path d="M17.1982 17.5143C19.178 17.5143 20.2046 16.5764 20.2046 14.6278V3.47358C20.2046 1.52499 19.178 0.514282 17.1982 0.514282H9.26967C8.04144 0.514282 7.14318 0.814764 6.31825 1.7071L1.13035 7.17952C0.461235 7.89886 0.20459 8.42698 0.20459 9.00062C0.20459 9.57427 0.461235 10.1115 1.13035 10.8217L6.32741 16.2668C7.15234 17.1592 8.0506 17.5052 9.26967 17.5052L17.1982 17.5143ZM17.0882 15.7296H9.19634C8.55473 15.7296 8.14226 15.5657 7.69313 15.1013L2.53273 9.69264C2.25775 9.41037 2.17526 9.21005 2.17526 9.00062C2.17526 8.7912 2.26692 8.59998 2.53273 8.31771L7.68397 2.88172C8.1331 2.41734 8.55473 2.29896 9.18717 2.29896H17.0882C17.9406 2.29896 18.4081 2.73603 18.4081 3.61926V14.4002C18.4081 15.2834 17.9406 15.7296 17.0882 15.7296ZM8.8847 12.834C9.12301 12.834 9.32466 12.7521 9.48048 12.5882L11.9003 10.1843L14.3201 12.5882C14.4759 12.743 14.6775 12.834 14.925 12.834C15.3833 12.834 15.75 12.4698 15.75 12.0054C15.75 11.7778 15.6583 11.5866 15.5025 11.4318L13.0735 9.01884L15.5025 6.59677C15.6766 6.43287 15.7591 6.24165 15.7591 6.02312C15.7591 5.56784 15.3925 5.20362 14.925 5.20362C14.705 5.20362 14.5217 5.28557 14.3476 5.45858L11.9003 7.87154L9.47132 5.45858C9.30633 5.29468 9.12301 5.22183 8.8847 5.22183C8.4264 5.22183 8.05977 5.57695 8.05977 6.03223C8.05977 6.25076 8.15143 6.45108 8.30725 6.60587L10.7362 9.01884L8.30725 11.4409C8.15143 11.5866 8.05977 11.7869 8.05977 12.0054C8.05977 12.4698 8.4264 12.834 8.8847 12.834Z" fill="#EB5757"/>
</svg>
