<svg width="21" height="18" viewBox="0 0 21 18" fill="none" xmlns="http://www.w3.org/2000/svg">
<path d="M17.1762 17.4629C19.156 17.4629 20.1826 16.525 20.1826 14.5764V3.42218C20.1826 1.4736 19.156 0.462891 17.1762 0.462891H9.24769C8.01946 0.462891 7.12121 0.763373 6.29627 1.65571L1.10837 7.12813C0.439262 7.84746 0.182617 8.37558 0.182617 8.94923C0.182617 9.52288 0.439262 10.0601 1.10837 10.7703L6.30544 16.2154C7.13037 17.1078 8.02863 17.4538 9.24769 17.4538L17.1762 17.4629ZM8.74357 12.9374C8.26694 12.9374 7.88198 12.5459 7.88198 12.0633C7.88198 11.8448 7.97363 11.6263 8.13862 11.4715L10.6592 8.96744L8.13862 6.47253C7.97363 6.30863 7.88198 6.09921 7.88198 5.87157C7.88198 5.38898 8.26694 5.02475 8.74357 5.02475C9.00022 5.02475 9.1927 5.0976 9.35769 5.2706L11.8783 7.76552L14.4173 5.2615C14.5914 5.08849 14.7839 5.00654 15.0222 5.00654C15.4988 5.00654 15.8838 5.37987 15.8838 5.85336C15.8838 6.0901 15.8013 6.29042 15.6272 6.46343L13.1065 8.96744L15.618 11.4624C15.783 11.6263 15.8746 11.8357 15.8746 12.0633C15.8746 12.5459 15.4988 12.9374 15.013 12.9374C14.7656 12.9374 14.5548 12.8373 14.3806 12.6825L11.8783 10.1876L9.37602 12.6825C9.21103 12.8464 9.00022 12.9374 8.74357 12.9374Z" fill="#EB5757"/>
</svg>
