<svg width="21" height="21" viewBox="0 0 21 21" fill="none" xmlns="http://www.w3.org/2000/svg">
<path d="M19.0384 2.93548L19.7891 2.14423C20.1695 1.7436 20.1995 1.19273 19.8191 0.812128L19.5589 0.541702C19.2185 0.201165 18.648 0.251244 18.2776 0.621828L17.4969 1.38303L19.0384 2.93548ZM7.18678 13.5923L9.23879 12.7309L18.3077 3.65661L16.7662 2.1242L7.69728 11.2085L6.7964 13.1916C6.6963 13.422 6.95656 13.6824 7.18678 13.5923ZM3.38306 20.3129H15.0445C16.9663 20.3129 18.0975 19.1911 18.0975 17.0477V6.47105L16.0955 8.46419V16.8674C16.0955 17.829 15.585 18.3097 14.9143 18.3097H3.51319C2.59229 18.3097 2.0918 17.829 2.0918 16.8674V5.7399C2.0918 4.77838 2.59229 4.29762 3.51319 4.29762H12.0115L14.0034 2.29446H3.38306C1.22095 2.29446 0.0898438 3.41623 0.0898438 5.55961V17.0477C0.0898438 19.1911 1.22095 20.3129 3.38306 20.3129Z" fill="black" fill-opacity="0.5"/>
</svg>
