<svg width="19" height="21" viewBox="0 0 19 21" fill="none" xmlns="http://www.w3.org/2000/svg">
<path d="M5.13523 20.9141H13.5067C14.9095 20.9141 15.8113 20.0907 15.8842 18.7273L16.4945 5.97825H17.4966C17.9611 5.97825 18.3164 5.62411 18.3164 5.18144C18.3164 4.73876 17.952 4.40233 17.4966 4.40233H13.452V3.07431C13.452 1.71088 12.5593 0.914062 11.0381 0.914062H7.57653C6.05527 0.914062 5.16256 1.71088 5.16256 3.07431V4.40233H1.13624C0.680779 4.40233 0.316406 4.74762 0.316406 5.18144C0.316406 5.63296 0.680779 5.97825 1.13624 5.97825H2.13827L2.74859 18.7273C2.82147 20.0995 3.71418 20.9141 5.13523 20.9141ZM6.866 3.15399C6.866 2.70246 7.19394 2.4103 7.69495 2.4103H10.9196C11.4207 2.4103 11.7486 2.70246 11.7486 3.15399V4.40233H6.866V3.15399ZM5.31742 19.3293C4.81641 19.3293 4.45203 18.9663 4.42471 18.4439L3.81438 5.97825H14.7911L14.199 18.4439C14.1808 18.9752 13.8255 19.3293 13.3063 19.3293H5.31742ZM6.62916 17.9039C7.02086 17.9039 7.26681 17.6648 7.2577 17.3107L6.98442 8.04996C6.97531 7.69582 6.72025 7.46563 6.34677 7.46563C5.96418 7.46563 5.71823 7.70468 5.72734 8.05882L6.00062 17.3196C6.00973 17.6737 6.26479 17.9039 6.62916 17.9039ZM9.31641 17.9039C9.699 17.9039 9.96317 17.6737 9.96317 17.3196V8.05882C9.96317 7.70468 9.699 7.46563 9.31641 7.46563C8.93382 7.46563 8.67875 7.70468 8.67875 8.05882V17.3196C8.67875 17.6737 8.93382 17.9039 9.31641 17.9039ZM12.0037 17.9127C12.368 17.9127 12.6231 17.6737 12.6322 17.3196L12.9055 8.05882C12.9146 7.70468 12.6686 7.47449 12.286 7.47449C11.9126 7.47449 11.6575 7.70468 11.6484 8.05882L11.3751 17.3196C11.366 17.6648 11.612 17.9127 12.0037 17.9127Z" fill="#EB5757"/>
</svg>
